<?xml version="1.0" encoding="UTF-8"?>
<svg id="Layer_1" data-name="Layer 1" xmlns="http://www.w3.org/2000/svg" version="1.1" viewBox="0 0 1000 1000">
  <defs>
    <style>
      .cls-1 {
        fill: #010101;
        stroke-width: 0px;
      }

      .cls-2 {
        fill: #231f20;
        font-family: LottePaperfang, 'Lotte Paperfang';
        font-size: 205.07px;
      }
    </style>
  </defs>
  <text class="cls-2" transform="translate(7.84 941.65)"><tspan x="0" y="0">DISTRO</tspan></text>
  <g>
    <path class="cls-1" d="M469.51,370.81L163.9,240.16c-15.19-6.49-32.06,4.67-32.03,21.19l.79,335.72c.02,9.19,5.51,17.47,13.95,21.08l305.62,130.65c15.19,6.49,32.06-4.67,32.03-21.19l-.79-335.72c-.02-9.18-5.51-17.47-13.95-21.08ZM186.64,560.84c2.28,5.37,5.44,10.07,9.46,14.1,4.03,4.03,8.72,7.18,14.1,9.46,5.37,2.28,11.14,3.42,17.32,3.42s11.75-1.14,17.12-3.42c5.37-2.28,10.07-5.44,14.1-9.46,4.03-4.03,7.21-8.72,9.57-14.1,2.35-5.37,3.52-11.14,3.52-17.32v-4.03h-44.3v-16.11h60.41v80.55h-16.11v-19.33c-5.64,6.04-12.22,10.77-19.73,14.2-7.52,3.42-15.71,5.13-24.57,5.13-8.33,0-16.18-1.58-23.56-4.73-7.39-3.15-13.79-7.45-19.23-12.89-5.44-5.44-9.74-11.85-12.89-19.23-3.16-7.38-4.73-15.23-4.73-23.56v-40.27c0-8.32,1.58-16.18,4.73-23.56,3.15-7.38,7.45-13.79,12.89-19.23,5.44-5.44,11.85-9.73,19.23-12.89,7.38-3.15,15.23-4.73,23.56-4.73s16.18,1.58,23.56,4.73c7.38,3.16,13.79,7.49,19.23,12.99,5.44,5.51,9.73,11.92,12.89,19.23,3.15,7.32,4.73,15.14,4.73,23.46h-16.11c0-6.17-1.14-11.95-3.42-17.32-2.28-5.37-5.44-10.07-9.46-14.1-4.03-4.03-8.73-7.18-14.1-9.46-5.37-2.28-11.14-3.42-17.32-3.42s-11.95,1.18-17.32,3.52c-5.37,2.35-10.07,5.54-14.1,9.56-4.03,4.03-7.18,8.73-9.46,14.1-2.28,5.37-3.42,11.08-3.42,17.12v40.27c0,6.18,1.14,11.95,3.42,17.32ZM449.02,603.94h-20.34l-41.68-56.58h2.01c2.82.14,5.54-.07,8.16-.6,2.62-.53,5.13-1.27,7.55-2.21,4.16-1.61,7.98-3.76,11.48-6.44,3.49-2.68,6.47-5.84,8.96-9.46,2.48-3.62,4.4-7.58,5.74-11.88,1.34-4.3,2.01-8.79,2.01-13.49,0-6.17-1.14-11.95-3.42-17.32-2.28-5.37-5.44-10.07-9.46-14.1-4.03-4.03-8.73-7.18-14.1-9.46-5.37-2.28-11.14-3.42-17.32-3.42h-44.3v144.98h-16.11v-161.09h60.21c8.46,0,16.38,1.58,23.76,4.73,7.38,3.16,13.79,7.45,19.23,12.89s9.73,11.85,12.89,19.23c3.15,7.39,4.73,15.24,4.73,23.56,0,5.91-.84,11.61-2.52,17.12-1.68,5.51-4.03,10.64-7.05,15.4-3.02,4.77-6.65,9.03-10.87,12.79-4.23,3.76-8.89,6.85-14,9.26l34.43,46.11Z"/>
    <path class="cls-1" d="M828.56,155.7L507.01,13.95c-2.97-1.31-6.15-1.96-9.33-1.95-3.18,0-6.35.67-9.32,2L167.49,157.27c-18.2,8.13-18.14,33.99.1,42.03l321.55,141.75c2.97,1.31,6.15,1.96,9.33,1.95,3.18,0,6.35-.67,9.32-2l320.87-143.27c18.2-8.13,18.14-33.99-.1-42.03ZM498.38,307.43L205.21,178.19,497.77,47.57l293.17,129.24-292.56,130.63Z"/>
    <path class="cls-1" d="M867.34,259.62c-.03-13.24-10.91-22.99-23.03-22.96-3,0-6.09.61-9.09,1.92l-304.99,132.09c-8.43,3.65-13.88,11.97-13.86,21.15l.79,335.72c.03,13.24,10.91,22.99,23.03,22.96,3,0,6.08-.62,9.09-1.92l304.99-132.09c8.43-3.65,13.88-11.97,13.85-21.15l-.79-335.72ZM551.6,709.99l-.73-310.69,282.03-122.14.74,310.69-282.03,122.14Z"/>
  </g>
</svg>