<?xml version="1.0" encoding="utf-8"?>
<!-- Generator: Adobe Illustrator 26.1.0, SVG Export Plug-In . SVG Version: 6.00 Build 0)  -->
<svg version="1.1" id="Layer_1" xmlns="http://www.w3.org/2000/svg" xmlns:xlink="http://www.w3.org/1999/xlink" x="0px" y="0px"
	 viewBox="0 0 1400 1400" style="enable-background:new 0 0 1400 1400;" xml:space="preserve">
<style type="text/css">
	.st0{fill-rule:evenodd;clip-rule:evenodd;fill:#000E30;}
	.st1{fill-rule:evenodd;clip-rule:evenodd;fill:url(#SVGID_1_);}
	.st2{fill-rule:evenodd;clip-rule:evenodd;fill:url(#SVGID_00000173872575311898306800000010624989766562929071_);}
	.st3{fill-rule:evenodd;clip-rule:evenodd;fill:#0A3E87;}
	.st4{filter:url(#Adobe_OpacityMaskFilter);}
	.st5{filter:url(#Adobe_OpacityMaskFilter_00000035514255682776537040000011182878377794559616_);}
	
		.st6{mask:url(#SVGID_00000165943532241078797270000005633615830976252802_);fill-rule:evenodd;clip-rule:evenodd;fill:url(#SVGID_00000016776456744492242590000005127049132685980321_);}
	.st7{fill-rule:evenodd;clip-rule:evenodd;fill:url(#SVGID_00000033363219783708524070000017255504824419771067_);}
	.st8{filter:url(#Adobe_OpacityMaskFilter_00000078758091045947117650000012734860157721652405_);}
	.st9{filter:url(#Adobe_OpacityMaskFilter_00000095307620010790303370000005709955672534784138_);}
	
		.st10{mask:url(#SVGID_00000157986427551415063580000011162435034370135467_);fill-rule:evenodd;clip-rule:evenodd;fill:url(#SVGID_00000116212803136351134440000006099296661061403043_);}
	.st11{fill-rule:evenodd;clip-rule:evenodd;fill:url(#SVGID_00000064325132498735454180000012093126048331117960_);}
	.st12{fill-rule:evenodd;clip-rule:evenodd;fill:#002B66;}
	.st13{fill-rule:evenodd;clip-rule:evenodd;fill:url(#SVGID_00000075161124165272587660000003560739607244575396_);}
</style>
<ellipse class="st0" cx="633" cy="1339" rx="547" ry="32"/>
<path class="st0" d="M452.01,1225.85c-6.75,39.02-10.57,79.41-11.37,120.15h517.03c-1.36-4.94-2.8-9.15-4.3-13.73
	c-8.82-40.45-19.56-80.51-35-119.85c-82.59-9.1-165.14-18.22-247.73-27.29C597.77,1198.72,524.91,1212.27,452.01,1225.85
	L452.01,1225.85z"/>
<g>
	<linearGradient id="SVGID_1_" gradientUnits="userSpaceOnUse" x1="1068.9774" y1="1200.5193" x2="148.0428" y2="279.5847">
		<stop  offset="0" style="stop-color:#000C16"/>
		<stop  offset="1" style="stop-color:#0B195E"/>
	</linearGradient>
	<path class="st1" d="M1001.1,1196.58c22.85-73.32,52.35-129.66,68.63-219.91c7-19.88,7.84-36.85,3.29-51.23
		c-4.79-46.89-10.11-93.54-18.51-138.76c-42.38,13.65-84.76,27.3-127.1,40.91c4.3,32.51,17.04,61.77,35.66,88.75
		c-0.87,25.16-2.66,50.08-6.58,74.4c-13.75,44.27-17.71,88.12-18.2,131.83c-7.17,31.15-14.35,52.39-21.49,71.95
		c-18.2,21.28-51.72,24.29-81.68,31.95c-10.29,4.51-20.54,8.99-30.83,13.51c6.4,9.76,13.65,18.66,23.62,25.1
		c14.73,18.58,11.02,45.12-12.81,80.92c42.73,0,85.42,0,128.12,0c11.58-23.46,20.4-49.22,26.46-75.95
		C981.36,1245.2,995.81,1237.91,1001.1,1196.58L1001.1,1196.58z"/>
	
		<linearGradient id="SVGID_00000088817566523874199640000011160283577203099313_" gradientUnits="userSpaceOnUse" x1="792.5471" y1="1476.9498" x2="-128.3871" y2="556.0157">
		<stop  offset="0" style="stop-color:#000C16"/>
		<stop  offset="1" style="stop-color:#0B195E"/>
	</linearGradient>
	<path style="fill-rule:evenodd;clip-rule:evenodd;fill:url(#SVGID_00000088817566523874199640000011160283577203099313_);" d="
		M456.42,878.51c-3.25,27.68-15.89,49.76-29.05,68.1c1.08,19.84,2.2,39.65,3.29,59.49c8.85,65.44,0.14,137.08-9.9,209.17
		c0.32,7.24,2.17,13.96,9.1,19c16.03-9.31,35.35-6.61,54.73-3.67c4.37,1.78,8.78,3.6,13.16,5.39
		c-8.99,16.24-16.73,35.11-22.43,58.52c12.81,27.02,32.09,40.38,52.07,51.49c-42.69,0-85.42,0-128.12,0
		c-12.07-12.35-17.36-28.36-23.17-53.14c-7.42-13.51-17.53-25.81-22.29-40.44c-3.43-10.5-1.12-22.02-1.68-33.05
		c-11.02-85.14-37.73-143.02-33.04-255.42c4.13-14.63,8.26-29.22,12.39-43.81c3.01-19.98,6.05-39.96,9.06-59.94
		C378.24,866.5,418.73,872.21,456.42,878.51L456.42,878.51z"/>
</g>
<path class="st3" d="M485.44,996.65c-14.8,32.72-21.87,67.86-22.33,104.99c-3.04,11.3-6.05,22.61-9.1,33.88
	c-4.13,14.03-5.25,31.46-4.97,50.43c-4.41,13.3-4.97,26.11-4.97,38.88c13.51,1.92,27.02,3.85,40.52,5.77
	c120.11,50.92,237.03,50.74,350.52-4.13c29.47-4.97,58.97-9.94,88.43-14.87c0.91-21.8-1.71-42.41-7.45-62.01
	c-3.01-33.07-6.05-66.14-9.06-99.21c11.44-71.32,19.95-144.39,18.16-222.36c58.23-11.06,111.25-28.59,156.26-56.2
	c-24.25-55.12-41.89-101.14-62.82-162.87c-10.81-37.2-14.77-76.85-41.36-111.6c-53.72-32.9-117.8-65.83-168.61-77.69
	c-10.5-3.04-21.07-11.97-31.43-9.1c-65.16,20.26-144.39,33.91-215.33,32.23c-17.11,0-23.97,10.78-37.62,21.91
	c-59.25,40.38-111.04,84.48-150.45,134.77c-10.6,28.7-15.85,64.53-19.84,102.08c-16.13,50.32-27.96,99.32-33.07,146.32
	c54.98,38.08,100.44,40.49,142.19,28.94c7.45-24.53,14.87-49.06,22.33-73.56c7.17,32.76,10.43,65.86,11.55,99.18
	C490.58,933.83,487.43,965.22,485.44,996.65L485.44,996.65z"/>
<g>
	<defs>
		<filter id="Adobe_OpacityMaskFilter" filterUnits="userSpaceOnUse" x="499.82" y="409.98" width="581.63" height="858.23">
			<feFlood  style="flood-color:white;flood-opacity:1" result="back"/>
			<feBlend  in="SourceGraphic" in2="back" mode="normal"/>
		</filter>
	</defs>
	
		<mask maskUnits="userSpaceOnUse" x="499.82" y="409.98" width="581.63" height="858.23" id="SVGID_00000170250818445611868070000015183101340014637201_">
		<g class="st4">
			<defs>
				
					<filter id="Adobe_OpacityMaskFilter_00000023961637189713245420000015778886566592045966_" filterUnits="userSpaceOnUse" x="499.82" y="409.98" width="581.63" height="858.23">
					<feFlood  style="flood-color:white;flood-opacity:1" result="back"/>
					<feBlend  in="SourceGraphic" in2="back" mode="normal"/>
				</filter>
			</defs>
			
				<mask maskUnits="userSpaceOnUse" x="499.82" y="409.98" width="581.63" height="858.23" id="SVGID_00000170250818445611868070000015183101340014637201_">
				<g style="filter:url(#Adobe_OpacityMaskFilter_00000023961637189713245420000015778886566592045966_);">
				</g>
			</mask>
			
				<linearGradient id="SVGID_00000039114732658775669840000005107362955895015298_" gradientUnits="userSpaceOnUse" x1="1081.4458" y1="839.0994" x2="499.8185" y2="839.0994">
				<stop  offset="0" style="stop-color:#FFFFFF"/>
				<stop  offset="1" style="stop-color:#000000"/>
			</linearGradient>
			
				<path style="mask:url(#SVGID_00000170250818445611868070000015183101340014637201_);fill-rule:evenodd;clip-rule:evenodd;fill:url(#SVGID_00000039114732658775669840000005107362955895015298_);" d="
				M499.82,1236.79c114.79,44.62,226.6,42.2,335.29-10.32c29.47-4.97,58.97-9.94,88.43-14.87c0.91-21.8-1.71-42.41-7.45-62.01
				c-3.01-33.07-6.05-66.14-9.06-99.21c11.44-71.32,19.95-144.39,18.16-222.36c58.23-11.06,111.25-28.59,156.26-56.2
				c-24.25-55.12-41.89-101.14-62.82-162.87c-10.81-37.2-14.77-76.85-41.36-111.6c-53.72-32.9-117.8-65.83-168.61-77.69
				c-10.5-3.04-21.07-11.97-31.43-9.1c-54.38,16.9-118.53,29.19-179.49,31.85c90.15,123.67,228.35,235.45,221.42,383.1
				C812.64,964,702.09,1132.75,499.82,1236.79L499.82,1236.79z"/>
		</g>
	</mask>
	
		<linearGradient id="SVGID_00000157308244299581162350000004384549535523914644_" gradientUnits="userSpaceOnUse" x1="1081.4458" y1="839.0994" x2="499.8185" y2="839.0994">
		<stop  offset="0" style="stop-color:#002B66"/>
		<stop  offset="1" style="stop-color:#002B66"/>
	</linearGradient>
	<path style="fill-rule:evenodd;clip-rule:evenodd;fill:url(#SVGID_00000157308244299581162350000004384549535523914644_);" d="
		M499.82,1236.79c114.79,44.62,226.6,42.2,335.29-10.32c29.47-4.97,58.97-9.94,88.43-14.87c0.91-21.8-1.71-42.41-7.45-62.01
		c-3.01-33.07-6.05-66.14-9.06-99.21c11.44-71.32,19.95-144.39,18.16-222.36c58.23-11.06,111.25-28.59,156.26-56.2
		c-24.25-55.12-41.89-101.14-62.82-162.87c-10.81-37.2-14.77-76.85-41.36-111.6c-53.72-32.9-117.8-65.83-168.61-77.69
		c-10.5-3.04-21.07-11.97-31.43-9.1c-54.38,16.9-118.53,29.19-179.49,31.85c90.15,123.67,228.35,235.45,221.42,383.1
		C812.64,964,702.09,1132.75,499.82,1236.79L499.82,1236.79z"/>
	<defs>
		
			<filter id="Adobe_OpacityMaskFilter_00000029026306633287680490000018128489114537895055_" filterUnits="userSpaceOnUse" x="320.92" y="409.99" width="486.89" height="492.41">
			<feFlood  style="flood-color:white;flood-opacity:1" result="back"/>
			<feBlend  in="SourceGraphic" in2="back" mode="normal"/>
		</filter>
	</defs>
	
		<mask maskUnits="userSpaceOnUse" x="320.92" y="409.99" width="486.89" height="492.41" id="SVGID_00000157272821496498861820000004416420243248010684_">
		<g style="filter:url(#Adobe_OpacityMaskFilter_00000029026306633287680490000018128489114537895055_);">
			<defs>
				
					<filter id="Adobe_OpacityMaskFilter_00000119108817267638935490000006938115463721722296_" filterUnits="userSpaceOnUse" x="320.92" y="409.99" width="486.89" height="492.41">
					<feFlood  style="flood-color:white;flood-opacity:1" result="back"/>
					<feBlend  in="SourceGraphic" in2="back" mode="normal"/>
				</filter>
			</defs>
			
				<mask maskUnits="userSpaceOnUse" x="320.92" y="409.99" width="486.89" height="492.41" id="SVGID_00000157272821496498861820000004416420243248010684_">
				<g style="filter:url(#Adobe_OpacityMaskFilter_00000119108817267638935490000006938115463721722296_);">
				</g>
			</mask>
			
				<linearGradient id="SVGID_00000077285430354224259180000008022431125773575599_" gradientUnits="userSpaceOnUse" x1="564.3679" y1="409.9924" x2="564.3679" y2="902.4073">
				<stop  offset="0" style="stop-color:#FFFFFF"/>
				<stop  offset="1" style="stop-color:#000000"/>
			</linearGradient>
			
				<path style="mask:url(#SVGID_00000157272821496498861820000004416420243248010684_);fill-rule:evenodd;clip-rule:evenodd;fill:url(#SVGID_00000077285430354224259180000008022431125773575599_);" d="
				M807.82,419.4c-10.22-3.25-20.51-11.62-30.59-8.85c-65.16,20.26-144.39,33.91-215.33,32.23c-17.11,0-23.97,10.78-37.62,21.91
				c-59.25,40.38-111.04,84.48-150.45,134.77c-10.6,28.7-15.85,64.53-19.84,102.08c-16.13,50.32-27.96,99.32-33.07,146.32
				c14.35,9.94,28.03,17.43,41.19,22.89c-0.32-67.54,7.63-135.12,30.31-202.69l79.79,178.79l13.23-43.6
				c7.17,32.76,10.43,65.86,11.55,99.18c15.12-68.49-32.62-117.17-37.66-202.1c-1.89-31.71,3.43-120.73,18.34-142.22
				c11.83-17.04,34.19-72.44,53.47-83.32C611.17,429.62,736.14,468.78,807.82,419.4L807.82,419.4z"/>
		</g>
	</mask>
	
		<linearGradient id="SVGID_00000075843753988742154770000007546975907920726200_" gradientUnits="userSpaceOnUse" x1="564.3679" y1="409.9924" x2="564.3679" y2="902.4073">
		<stop  offset="0" style="stop-color:#238ED1"/>
		<stop  offset="1" style="stop-color:#238ED1"/>
	</linearGradient>
	<path style="fill-rule:evenodd;clip-rule:evenodd;fill:url(#SVGID_00000075843753988742154770000007546975907920726200_);" d="
		M807.82,419.4c-10.22-3.25-20.51-11.62-30.59-8.85c-65.16,20.26-144.39,33.91-215.33,32.23c-17.11,0-23.97,10.78-37.62,21.91
		c-59.25,40.38-111.04,84.48-150.45,134.77c-10.6,28.7-15.85,64.53-19.84,102.08c-16.13,50.32-27.96,99.32-33.07,146.32
		c14.35,9.94,28.03,17.43,41.19,22.89c-0.32-67.54,7.63-135.12,30.31-202.69l79.79,178.79l13.23-43.6
		c7.17,32.76,10.43,65.86,11.55,99.18c15.12-68.49-32.62-117.17-37.66-202.1c-1.89-31.71,3.43-120.73,18.34-142.22
		c11.83-17.04,34.19-72.44,53.47-83.32C611.17,429.62,736.14,468.78,807.82,419.4L807.82,419.4z"/>
	<path class="st12" d="M485.44,996.65c-14.8,32.72-21.87,67.86-22.33,104.99c-3.04,11.3-6.05,22.61-9.1,33.88
		c-4.13,14.03-5.25,31.46-4.97,50.43c-4.41,13.3-4.97,26.11-4.97,38.88c13.51,1.92,27.02,3.85,40.52,5.77
		c40.14,17.01,79.93,28.31,119.37,33.81c-46.47-10.95-94.59-26.95-144.36-47.8c-2.83-6.33-2.97-12.67,0.8-19
		c60.79,7.91,129.8,52.95,312.48,9.06c-102.15,7.63-204.48,13.72-309.99-19.81c-5.18-5.81-7.49-11.58-6.61-17.39
		c86.47,23.27,174.52,26.53,263.2,21.1c-83.67,0.53-168.22-3.32-257.39-29.36c-4.83-9.03-4.58-19.88,0-32.23
		c132.32-113.63,243.81-254.45,303.38-462.92c-55.68,117.27-116.85,230.73-186.84,338.09c-28.56,35.73-62.64,68.45-103.31,97.53
		c-2.97-33.77,2.1-69.78,19-109.12C540.73,872,606.84,787.38,604.25,688.37c-6.93,52.35-22.22,102.47-57.85,147.12
		c-16.52,44.65-33.07,89.27-49.59,133.93c6.86-55.78,16.17-112.55,46.3-177.74c-16.2,29.5-30.97,60.89-40.52,99.21
		c-7.66-50.18-10.25-101.07-5.77-152.93c-3.88,10.74-7.73,21.49-11.58,32.23c-40.42-22.92-48.26-76.89-53.72-133.09
		c-6.72,28.1-4.9,55.68,6.61,82.66c-24.32-22.99-46.54-49.45-65.34-81.82c4.65,52,28.28,83.99,52.91,114.89
		c15.82,31.29,23.06,65.44,28.94,100.02c-43.01-24.88-76.29-65.72-88.47-141.35c2.76,66.67,21.8,123.43,55.43,171.37
		c14.35-0.14,28.1-2.38,41.5-6.09c7.45-24.53,14.87-49.06,22.33-73.56c7.17,32.76,10.43,65.86,11.55,99.18
		C490.58,933.83,487.43,965.22,485.44,996.65L485.44,996.65z M536.35,488.83c47.66,62.26,162.69,49.73,245.91-25.23
		C713.26,536.28,581.67,565.12,536.35,488.83L536.35,488.83z M835.11,1226.47c29.47-4.97,58.97-9.94,88.43-14.87
		c0.91-21.8-1.71-42.41-7.45-62.01l-8.85-96.62c-5.56,16.69-6.54,38.71-7.87,60.3c-44.16-34.82-83.95-42.62-108.28-23.97
		c37.87-3.85,75.14,1.92,110.76,33.91c-6.75,20.44,3.88,38.08,11.58,56.2c-21.21-3.53-42.45-3.36-63.66-1.64
		c24.04,2.13,47.1,6.33,67.02,16.76c-41.19,1.89-78.22,8.05-110.83,18.76c29.36-4.2,59.18-9.48,89.66-6.54
		C873.71,1210.65,853.97,1219.78,835.11,1226.47L835.11,1226.47z M925.19,828.01c28.24-5.35,55.26-12.25,80.7-21.07l-76.75,8.71
		c-8.68-25.51-12.56-54.63-12.39-86.79c30.52-47.73,46.89-98.02,47.1-151.29c-7.28,44.2-14.35,88.47-52.91,124.83
		c-0.28-7.17-0.56-14.31-0.8-21.49c8.92-14.17,15.85-31.29,21.49-50.43c-1.4-21.77-2.76-43.53-4.13-65.3
		c-2.38,41.22-9.24,81.68-24.81,120.7c4.51,21.31,4.86,43.43-1.64,66.95c6.89,46.12,6.86,91.37,4.93,136.41
		C912.38,868.85,918.79,848.41,925.19,828.01L925.19,828.01z"/>
</g>
<linearGradient id="SVGID_00000097463440865913314390000006969770336088663218_" gradientUnits="userSpaceOnUse" x1="1313.4199" y1="956.076" x2="392.4843" y2="35.1404">
	<stop  offset="0" style="stop-color:#000C16"/>
	<stop  offset="1" style="stop-color:#0B195E"/>
</linearGradient>
<path style="fill-rule:evenodd;clip-rule:evenodd;fill:url(#SVGID_00000097463440865913314390000006969770336088663218_);" d="
	M546.4,453.38c6.26-4.16,17.04-7.17,21.7-13.02c1.71-28.84-2.69-58.65-11.16-90.53c-2.2-6.61-4.41-13.23-6.61-19.81
	c0.7,6.05,1.36,12.11,2.06,18.16c-3.57-11.3-12.32-24.46-15.92-35.73c-7.31,1.64-13.75-1.5-17.78-16.97
	c-9.03-17.71-16.59-35.98-14.87-57.85c0.14-5.46,2.62-7.49,6.19-7.87c-4.62-15.26-8.71-30.87-11.16-47.52
	c-2.2,0.7-4.41,1.4-6.61,2.06c2.83-16.97,7.94-32.76,16.55-46.68c-4.51,0.04-8.75,1.29-12.81,3.29c3.99-3.88,8.26-7,12.81-9.1
	c-1.78-11.16-1.4-22.33,0.8-33.46c0.87,7,2.17,14.03,4.97,21.07c15.05-25.51,36.08-42.83,59.95-56.2c-2.2,3.99-4.41,7.98-6.61,11.97
	c21.24-6.96,42.8-12.32,64.88-14.87c43.08,6.51,74.54,21.84,104.36,45.95c-8.33-1.08-11.58-1.33-19.21-1.29
	c11.86,16.62,20.65,33.77,27.3,51.23c-2.62-0.56-5.25-1.08-7.87-1.64c5.04,12,8.19,23.69,9.94,35.14c-2.34-3.04-4.69-6.05-7.03-9.1
	c-0.98,11.44-1.92,22.85-2.9,34.3c7.98-2.73,12.42,1.36,12.42,14.07c0.04,18.97-2.97,36.68-9.52,52.91
	c-0.95,11.06-7.8,17.43-15.08,18.58c-2.38,14.84-8.61,31.64-7.66,47.03c-0.66-4.55-1.36-9.1-2.06-13.65
	c-1.33,8.68-1.12,17.36-0.38,26.04c1.29,15.29,6.3,27.26,10.11,35.14c17.95,10.71,42.83,14.77,61.38,19.95
	C764.35,498.03,577.65,542.65,546.4,453.38L546.4,453.38z"/>
</svg>
